<svg xmlns="http://www.w3.org/2000/svg" viewBox="0 0 166.5 166.36"><title>Slack_Mark</title><path d="M109.91,12.26A14.85,14.85,0,1,0,81.64,21.4l38.37,118a14.81,14.81,0,0,0,18,9.15c7.92-2.32,12.7-10.65,10.1-18.3C148.14,130,109.91,12.26,109.91,12.26Z" transform="translate(-2 -2)" style="fill:#ecb32d"/><path d="M50.51,31.51a14.85,14.85,0,0,0-28.26,9.15l38.37,118a14.81,14.81,0,0,0,18,9.15c7.92-2.32,12.7-10.65,10.1-18.3C88.74,149.21,50.51,31.51,50.51,31.51Z" transform="translate(-2 -2)" style="fill:#63c1a0"/><path d="M158.24,109.88a14.85,14.85,0,0,0-9.15-28.26L31,120.12a14.81,14.81,0,0,0-9.15,18c2.32,7.92,10.65,12.7,18.3,10.1C40.41,148.25,158.24,109.88,158.24,109.88Z" transform="translate(-2 -2)" style="fill:#e01a59"/><path d="M55.57,143.34c7.65-2.46,17.61-5.73,28.26-9.15-2.46-7.65-5.73-17.61-9.15-28.26l-28.26,9.15Z" transform="translate(-2 -2)" style="fill:#331433"/><path d="M115.1,123.95c10.65-3.41,20.62-6.69,28.26-9.15-2.46-7.65-5.73-17.61-9.15-28.26l-28.26,9.15Z" transform="translate(-2 -2)" style="fill:#d62027"/><path d="M138.86,50.49a14.85,14.85,0,1,0-9.15-28.26l-118,38.37a14.81,14.81,0,0,0-9.15,18c2.32,7.92,10.65,12.7,18.3,10.1C21.16,88.72,138.86,50.49,138.86,50.49Z" transform="translate(-2 -2)" style="fill:#89d3df"/><path d="M36.31,83.8c7.65-2.46,17.61-5.73,28.26-9.15C61.16,64,57.89,54,55.43,46.39L27.16,55.54Z" transform="translate(-2 -2)" style="fill:#258b74"/><path d="M95.71,64.55c10.65-3.41,20.62-6.69,28.26-9.15-3.41-10.65-6.69-20.62-9.15-28.26L86.56,36.29Z" transform="translate(-2 -2)" style="fill:#819c3c"/></svg>